<?xml version="1.0" encoding="UTF-8"?>
<svg id="Laag_1" xmlns="http://www.w3.org/2000/svg" xmlns:xlink="http://www.w3.org/1999/xlink" version="1.1" viewBox="0 0 132.5 132">
  <!-- Generator: Adobe Illustrator 29.0.0, SVG Export Plug-In . SVG Version: 2.1.0 Build 186)  -->
  <defs>
    <style>
      .st0 {
        fill: #ebebeb;
      }

      .st1 {
        fill: #d2d1d1;
      }

      .st2 {
        fill: #4e98be;
      }

      .st3 {
        fill: #2f75a1;
      }

      .st4 {
        fill: #3b82ac;
      }

      .st5 {
        fill: #babab9;
      }

      .st6 {
        fill: url(#Naamloos_verloop_2);
      }
    </style>
    <linearGradient id="Naamloos_verloop_2" data-name="Naamloos verloop 2" x1="75.29" y1="56.66" x2="56.88" y2="75.22" gradientUnits="userSpaceOnUse">
      <stop offset="0" stop-color="#4590b7"/>
      <stop offset="1" stop-color="#347ca7"/>
    </linearGradient>
  </defs>
  <g id="Generatief_object">
    <g>
      <path class="st2" d="M95.96,96.69c.54-.39,1.18-.6,1.36.17-3.68,2.86-2.15,9.78,2.46,10.53,6.92,1.12,10.1-7.63,4.5-10.87-.59-1.43-3.25-.79-3.74-2.04,8.24-.59,10.44,10.93,3.31,13.58-8.28,3.08-12.63-7.93-7.9-11.38Z"/>
      <path class="st2" d="M22.61,64.93c-.08-.06-.35-.27-.34,0-.76-3.09-6.25-2.87-6.62.59-.47,4.41,5.85,5.1,6.62,1.44.19-.15.33-.12.51-.17-.81,3.37-4.74,4.07-6.96,1.44-.24-.28-.49-1.5-.76-1.61-.43-.18-8.91-.18-9.34,0-.07.03-.31.79-.68,1.02-3.46,2.12-5.07-3.47-2.04-4.08,2.17-.43,2.45,1.53,2.89,1.7s8.94.24,9.34,0c.12-.07.55-1.67,1.53-2.38,2.02-1.45,5.29-.59,5.86,2.04Z"/>
      <path class="st5" d="M82.04,126.57c1.56,1.38,8.67.19,9.59.85.14.1.14,1.09,0,1.19-.78.55-16.88-.13-19.1.17.4-.66,1.15-1.67,1.36-2.38,2.7.48,5.42.12,8.15.17Z"/>
      <path class="st5" d="M52.16,126.91c-.66.04-4.48.03-4.67.17-.39.27.7,1.67-1.87,1.53l14.01.17c.04.05.13.3.17.34-4.86.2-9.82.2-14.69,0-1.62-.07-10.5-.42-11.38-.85-.13-.06-.28-.32-.42-.42.12-.48,4.58-.7,5.35-.76,3.73-.33,8.66-.63,12.73-.51.31,0,.84-.17.76.34Z"/>
      <path class="st2" d="M114.81,69.35l-.17-.51c1.54-.8,1.95-2.3,1.53-3.91l.51-.17c.1.13.18.48.25.51.43.18,8.9.15,9.34,0,.64-.21.84-2.12,3.06-1.7,2.72.51,1.75,5.84-1.87,4.24-.49-.21-.94-1.33-1.02-1.36-.43-.18-8.91-.18-9.34,0-.19.08-.84,2.28-2.29,2.89Z"/>
      <path class="st1" d="M72.19,129.12s.14-.37.34-.34c2.23-.3,18.32.38,19.1-.17.14-.1.14-1.09,0-1.19-.92-.66-8.03.53-9.59-.85,1.98.04,16.31.49,16.89,1.19.14.13-.28.48-.34.51-.96.46-8.27.77-9.85.85-5.48.26-11.07.2-16.55,0Z"/>
      <path class="st5" d="M59.63,128.78l-14.01-.17c2.56.14,1.48-1.26,1.87-1.53.19-.13,4.01-.13,4.67-.17,2-.12,4.3,0,6.11-.51.19.66.92,1.81,1.36,2.38Z"/>
      <g>
        <path class="st3" d="M118.04,82.59c-3.47,5.18.73,11.61,6.79,11.04l.76.68,2.8-1.02c-5.2,3.28-12.1.23-12.56-5.94,1.22-1.11.2-3.99,2.21-4.75Z"/>
        <g>
          <path class="st0" d="M124.83,93.63c-6.07.57-10.26-5.85-6.79-11.04,2.85-4.26,9.39-4.23,12.06.25,2.61,4.4-.17,10.3-5.26,10.78Z"/>
          <path class="st4" d="M123.22,80.55c9.03-.79,8.85,13.31-.51,11.89-6.4-.97-6.14-11.3.51-11.89Z"/>
        </g>
      </g>
      <g>
        <path class="st0" d="M104.28,96.52c5.6,3.24,2.42,11.99-4.5,10.87-4.61-.75-6.14-7.67-2.46-10.53,1.97-1.53,4.87-1.55,6.96-.34Z"/>
        <path class="st2" d="M100.8,96.69c6.3-.37,6.9,9.08,1.02,9.68-6.76.69-7.27-9.31-1.02-9.68Z"/>
      </g>
      <g>
        <path class="st4" d="M103.77,52.2h.85c.76,4.56,7.64,4.08,7.64-.68.13-.3.49-.32.51-.34.18,4.93-6.04,6.48-8.4,2.21l-19.7,6.62.76,5.18c2.48-.38,10.45.79,12.31.08.48-.18.71-2.18,3.06-1.7,1.01.21,1.31,1.57,1.7,1.7.31.1,6.32.13,6.62,0s.91-2.98,3.4-3.23,3.06,1.22,4.16,2.72l-.51.17c-.59-2.26-3.35-2.99-5.18-1.7-3.05,2.15-.27,7.64,3.65,5.6l.17.51c-1.59.66-3.6.47-4.75-.93-.29-.36-.84-1.91-.93-1.95-.31-.15-6.47-.12-6.79,0-.45.17-.61,1.99-2.89,1.53-.85-.17-1.29-1.4-1.7-1.53-2.42-.75-9.33.57-12.23,0l-.76,4.84,19.27,7.05c1.55-2.97,6.28-3.32,7.9-.25.5.95.42,3.01.76,3.31.15.13,3.54,1.37,3.74,1.36.28-.02,2.1-2.45,2.72-2.89,9.05-6.35,18.54,7.56,9.25,13.41l-2.8,1.02-.76-.68c5.09-.48,7.88-6.38,5.26-10.78-2.66-4.49-9.2-4.52-12.06-.25-2.01.77-.99,3.65-2.21,4.75-.07-.99-.09-2.22.34-3.14l-.25-.42c-.79.04-3.4-1.46-3.91-1.36-.16.03-1.27,1.73-2.38,2.04-3.79,1.07-5.97-1.58-6.11-5.09l-19.02-6.96-4.16,6.71c.82.81,6.24,6.77,6.71,6.88.71.16,1.8-.64,2.8.59.89,1.1.2,1.92.34,2.55.1.46,6.24,6.63,6.71,6.71.19.03,2.59-1.28,3.65-1.36.49,1.25,3.15.61,3.74,2.04-2.1-1.21-4.99-1.19-6.96.34-.18-.77-.82-.56-1.36-.17-1.12-.53-6.08-6.51-6.54-6.62-.77-.19-2.24.74-3.14-.76-.71-1.18-.01-1.86-.17-2.55-.13-.57-6-5.67-6.71-6.71-3.44,2.95-7.75,5.12-12.39,5.09l-.42.42c.36,1.61-.46,6.22,0,7.47.04.11.77.42,1.19,1.1l.17,1.95c-.69.68-1.47,1.75-2.55,1.61-1.15-.14-1.9-1.9-1.7-2.97.19-.99,1.64-1.56,1.7-1.7.14-.35.15-7.29,0-7.64l-5.69-1.1-7.05,15.79-.34.34c-4.84-2.64-8.25,4.53-4.08,6.79-.09.24-.23.46-.34.68-3.99-3.97-1.71-8.64,3.74-8.74l6.96-15.28-5.52-3.65-16.72,16.55c4.55,5.87-1.01,13.92-8.07,11.29-7.51-2.8-4.74-15.96,5.26-13.07.35.1,1.68,1.04,1.87,1.02,1.17-.14,14.36-15.04,16.55-16.72l-4.41-6.71c.49-.73-.08-1.06-.17-1.53-.28-1.47-.69-2.91-.76-4.41h-14.6c-.46,1.15-1.75,1.64-2.89,1.36-.62-.15-1.18-1.3-1.36-1.36-.48-.17-4.36,0-5.01.17-.18.05-.32.02-.51.17.05-.24.05-1.82,0-2.04,0-.27.26-.06.34,0,.44.35,4.39.57,5.01.34.21-.08.53-1.06,1.02-1.36,1.39-.84,3-.13,3.57,1.36h14.43c.28-1.56.34-3.22.76-4.75.09-.34.31-1.29.34-1.36.57-1.58,2.91-5.19,4.08-6.45.16-.17.85-.86,1.02-1.02,3.33-3.08,8.07-4.9,12.56-5.09.84-.04,1.38.33,1.61.34.14,0,.07-.34.08-.34,1.7.11,3.43.39,5.01,1.02l7.22-15.54c-2.1-2.08-3.09-5.79-.25-7.73,1.58-1.07,3.81-.54,4.08-.68.18-.1,1.8-3.61,1.78-3.82-.02-.23-2.38-2.24-2.72-3.57-2.1-8.16,8.79-11.42,11.89-4.92,2.44,5.11-2.26,10.79-7.73,8.91-.39.06-2.18,3.62-2.12,3.99.14.88,2.67,1.7,1.7,5.09-.73,2.54-3.34,3-5.6,3.23l-6.96,15.28,5.69,3.65c1.51-2.37,16.65-15.54,16.72-16.72,0-.13-1.2-1.68-1.36-2.21-2.47-8.03,8.02-12.66,12.39-6.45,3.88,5.5-1.14,12.43-7.56,10.95-.68-.16-2.4-1.37-2.55-1.36-1.19.09-14.5,15.22-16.72,16.89l4.33,6.2,19.44-6.62Z"/>
        <g>
          <path class="st0" d="M63.79,48.12c24.62-2.46,27.01,33.98,3.74,35.66-23.72,1.7-25.67-33.47-3.74-35.66Z"/>
          <path class="st6" d="M64.47,50.67c20.87-1.84,22.52,29.43,2.72,30.56-20.41,1.17-21.73-28.88-2.72-30.56Z"/>
        </g>
        <g>
          <path class="st0" d="M29.66,95.67c8.45-1.33,9.59,10.7,2.55,11.72-8.54,1.23-9.32-10.65-2.55-11.72Z"/>
          <path class="st4" d="M29.83,96.85c7.32-1.19,7.69,9.03,1.7,9.51s-7.07-8.64-1.7-9.51Z"/>
        </g>
        <g>
          <path class="st0" d="M100.12,24.35c8.34-1.05,9.29,11.2,1.7,11.89s-8.85-10.98-1.7-11.89Z"/>
          <path class="st4" d="M100.12,25.54c6.87-1.02,7.7,8.71,1.87,9.51-6.66.91-7.51-8.67-1.87-9.51Z"/>
        </g>
        <g>
          <path class="st0" d="M87.9,8.39c8.41-.49,8.23,12.85-.51,11.72-6.65-.87-6.28-11.32.51-11.72Z"/>
          <path class="st4" d="M87.39,9.41c7.47-1.11,7.74,10.36.51,9.85-5.69-.4-5.8-9.06-.51-9.85Z"/>
        </g>
        <g>
          <path class="st0" d="M107.09,76.48c5.71-1.1,6.5,7.4,1.36,7.81s-5.67-6.98-1.36-7.81Z"/>
          <path class="st4" d="M107.26,77.33c5.38-1.01,4.8,7.4-.17,5.94-2.82-.83-2.63-5.42.17-5.94Z"/>
        </g>
        <g>
          <path class="st0" d="M81.28,24.01c5.13-.44,5.69,7.07,1.36,7.81-5.83.99-6.39-7.38-1.36-7.81Z"/>
          <path class="st4" d="M81.11,24.86c4.07-.58,4.84,5.15,1.7,6.11-4.46,1.36-5.7-5.55-1.7-6.11Z"/>
        </g>
      </g>
      <g>
        <path class="st0" d="M116.17,64.93c.42,1.61.01,3.11-1.53,3.91-3.92,2.03-6.7-3.45-3.65-5.6,1.83-1.29,4.59-.56,5.18,1.7Z"/>
        <path class="st2" d="M112.18,63.58c3.71-.92,4.25,4.12,1.7,4.75-3.61.9-4.27-4.11-1.7-4.75Z"/>
      </g>
      <g>
        <path class="st0" d="M22.27,64.93c.05.22.05,1.8,0,2.04-.77,3.65-7.09,2.97-6.62-1.44.37-3.47,5.86-3.68,6.62-.59Z"/>
        <path class="st2" d="M18.45,63.58c3.51-.6,3.93,4.4,1.19,4.92-3.37.64-4.1-4.43-1.19-4.92Z"/>
      </g>
      <g>
        <path class="st2" d="M67.1,46.6s.05.35-.08.34c-.24,0-.77-.38-1.61-.34-.28-1.27.38-7.18,0-7.9-.06-.11-1.48-.39-1.7-1.7-.38-2.32,1.51-2.44,1.7-2.89.21-.49.19-10.2,0-10.7-.08-.21-1.52-.72-1.7-1.87-.32-2.13,1.53-2.32,1.7-2.72.04-.1.05-2.11,0-2.21-.09-.18-2.18-.54-2.63-.76-9-4.36-4.44-17.63,5.26-15.62,7.38,1.53,8.49,12.41,1.36,15.62-1.46.66-3.77-.01-2.8,2.8.35,1,3.78,2.32,0,4.75.83,2.48-.54,8.65.17,10.7.05.15,1.37.89,1.53,1.53.59,2.38-1.6,2.9-1.7,3.23s.14,6.04.17,6.96c.01.31-.17.84.34.76Z"/>
        <g>
          <path class="st0" d="M65.49,1.09c9.26-.64,10.21,13.01,2.04,14.26-10.38,1.59-11.34-13.62-2.04-14.26Z"/>
          <path class="st2" d="M64.98,2.28c8.5-1.24,9.5,11.45,1.7,12.06s-8.7-11.03-1.7-12.06Z"/>
        </g>
      </g>
      <g>
        <path class="st2" d="M47.74,59.16c-.03.07-.25,1.02-.34,1.36l-19.1-7.13c-1.76,2.54-5.63,3.7-7.73.93-1.27-1.68-.48-3.33-.85-4.08-.09-.18-3.45-1.45-3.65-1.44-.43,0-2.11,2.5-2.89,3.06-7.82,5.58-17.26-4.51-11.12-11.8,5.52-6.55,16.49-1.04,14.09,7.3.08.27,3.81,1.69,4.16,1.61.14-.03,1.6-1.49,2.38-1.7,2.7-.73,4.83.85,5.69,3.31.2.58-.36,1.22.42,1.78l18.93,6.79Z"/>
        <g>
          <path class="st0" d="M7.08,38.28c10.09-1.38,11.09,13.2,2.21,14.09-9.71.98-10.62-12.94-2.21-14.09Z"/>
          <path class="st2" d="M7.76,39.3c8.74-.7,8.66,13.1-.51,11.89-6.53-.86-6.39-11.33.51-11.89Z"/>
        </g>
        <g>
          <path class="st0" d="M23.38,47.61c5.35-.68,5.89,7.16,1.36,7.81-5.43.78-6.07-7.21-1.36-7.81Z"/>
          <path class="st2" d="M23.38,48.46c4.25-.68,4.84,5.52,1.36,6.11-4.48.76-4.84-5.56-1.36-6.11Z"/>
        </g>
      </g>
      <g>
        <path class="st3" d="M67.78,94.14c1.55,2.54-.92,2.83-1.19,3.65-.16.48-.16,9.7,0,10.19.09.28,1.36.84,1.53,1.53.59,2.34-1.31,2.58-1.53,3.23-1.07,3.24,1.87,2.64,3.82,3.82,3.32,2.01,4.57,6.2,3.48,9.85-.21.71-.96,1.72-1.36,2.38-.2-.03-.32.33-.34.34-1.01.56-1.77,1.73-3.14,2.21-3.14,1.1-7.04.32-9.25-2.21-.04-.04-.13-.29-.17-.34-.44-.57-1.16-1.71-1.36-2.38-1.07-3.65.14-7.85,3.48-9.85.78-.47,3.56-1.1,3.65-1.27.06-.12.05-2.59,0-2.72-.12-.29-1.89-.65-1.7-2.55.13-1.26,1.63-1.71,1.7-1.87.59-1.38-.45-8.46,0-10.44,1.07.13,1.86-.93,2.55-1.61l-.17-1.95Z"/>
        <path class="st0" d="M61.84,129.29l1.53-.17c5.77,2.52,11.25-3.92,7.64-9.08-4.13-5.9-13.62-.53-10.36,6.37l-.85.51c-4.02-8.1,6.71-14.32,11.89-7.9,5.13,6.36-2.97,15.43-9.85,10.27Z"/>
        <path class="st0" d="M63.36,129.12l-1.53.17c-1.09-.82-1.41-1.11-2.04-2.38l.85-.51c.36.75,1.96,2.39,2.72,2.72Z"/>
        <path class="st4" d="M63.36,129.12c-.76-.33-2.36-1.96-2.72-2.72-3.26-6.9,6.23-12.27,10.36-6.37,3.61,5.16-1.87,11.6-7.64,9.08Z"/>
      </g>
      <g>
        <g>
          <path class="st0" d="M112.26,51.52c0,4.76-6.88,5.24-7.64.68-.92-5.5,7.64-6.2,7.64-.68Z"/>
          <path class="st2" d="M107.76,48.46c3.93-.59,4.9,4.85,1.87,5.94-4.47,1.61-5.83-5.35-1.87-5.94Z"/>
        </g>
        <g>
          <path class="st2" d="M112.77,51.18s-.38.04-.51.34c0-5.52-8.56-4.82-7.64.68h-.85c.58-.67.22-1.49.51-2.29.84-2.32,3.67-3.3,5.86-2.46.97.37,2.06,2,2.21,2.04.36.1,3.12-1.26,3.74-1.36-3.12-8.55,8.26-15.03,14.01-8.07,6.24,7.56-4.01,17.75-11.63,11.46-.48-.4-1.73-2.18-1.87-2.21-.2-.04-3.57,1.25-3.74,1.36-.18.12-.03.45-.08.51Z"/>
          <g>
            <path class="st0" d="M122.37,38.28c10.25-1.48,11.27,13.23,2.21,14.09-9.53.9-10.39-12.92-2.21-14.09Z"/>
            <path class="st2" d="M123.05,39.3c8.05-.74,8.84,10.84,1.87,11.89-8.56,1.28-9.47-11.19-1.87-11.89Z"/>
          </g>
        </g>
      </g>
      <g>
        <g>
          <path class="st3" d="M15.31,82.42c.09.16.45,1.01.51,1.19,3.63,10.97-12.02,15.13-15.28,6.03-3.55-9.9,10.12-15.58,14.77-7.22Z"/>
          <g>
            <path class="st0" d="M7.59,79.37c9.36-.62,10.3,13.24,1.7,14.26-10.2,1.21-10.82-13.65-1.7-14.26Z"/>
            <path class="st4" d="M7.42,80.55c9.03-.86,8.88,13.32-.51,11.89-6.35-.97-6.13-11.25.51-11.89Z"/>
          </g>
        </g>
        <g>
          <path class="st2" d="M47.57,72.57l-19.44,6.96c-.13,3.81-3.7,6.45-7.13,4.24-.4-.25-1.26-1.5-1.36-1.53-.35-.09-3.18,1.17-3.82,1.36-.06-.18-.42-1.02-.51-1.19.65-.31,3.48-.99,3.82-1.36.12-.13.2-2.17.59-2.97,1.65-3.34,6.26-2.56,8.07.25l19.61-7.3c.09.47.66.79.17,1.53Z"/>
          <g>
            <path class="st0" d="M22.53,76.48c5.71-1.03,6.21,6.75,2.04,7.47-5.79,1-6.12-6.73-2.04-7.47Z"/>
            <path class="st2" d="M23.21,77.16c4.02-.36,4.43,5.66.85,6.11-4.15.52-4.67-5.77-.85-6.11Z"/>
          </g>
        </g>
      </g>
      <g>
        <path class="st2" d="M52.84,51.69c-.17.16-.86.85-1.02,1.02-.71-.62-4.78-5.17-5.18-5.26-.69-.16-2.46.62-3.14-.93-.41-.93.08-1.85,0-2.21-.15-.68-7.53-7.07-8.32-8.4.06-.04.91-.9,1.02-1.02.94,1.03,7.66,8.36,8.23,8.49.69.15,1.82-.69,2.8.59.84,1.1.18,1.89.34,2.55.1.42,4.64,4.46,5.26,5.18Z"/>
        <g>
          <path class="st4" d="M36.2,34.88c-.11.12-.96.98-1.02,1.02-7.83,5.52-15.66-6.18-8.23-11.38,6.63-4.64,14.84,4.05,9.25,10.36Z"/>
          <g>
            <path class="st0" d="M30,24.35c8.44-1.1,9.11,11.37,1.53,11.89-7.88.54-8.46-10.98-1.53-11.89Z"/>
            <path class="st4" d="M30,25.54c7.5-1.17,7.56,10.25.34,9.51-5.16-.53-5.47-8.71-.34-9.51Z"/>
          </g>
        </g>
      </g>
      <g>
        <g>
          <path class="st0" d="M52.33,100.42c4.18,2.28.91,9.49-4.08,6.79-4.17-2.26-.76-9.43,4.08-6.79Z"/>
          <path class="st4" d="M49.53,100.76c4.68-.85,5.09,6.05,1.02,6.28-3.79.21-4.47-5.66-1.02-6.28Z"/>
        </g>
        <g>
          <path class="st4" d="M47.91,107.89c.11-.22.25-.44.34-.68,4.99,2.7,8.26-4.51,4.08-6.79l.34-.34c3.32,2.35,2.51,7.11-1.44,8.15-.49.13-1.65-.15-2.04,0-.2.08-1.94,3.61-1.95,3.82-.02.43,1.87,2.01,2.21,2.72,2.18,4.55-1.07,9.77-6.2,9.42-7.45-.5-8.24-12.81,1.36-12.73.23,0,1.28.47,1.53.34.19-.1,1.49-3.34,1.78-3.91Z"/>
          <g>
            <path class="st0" d="M43.24,111.97c8.79-.69,8.05,13.48-.85,11.55-6.16-1.34-5.52-11.04.85-11.55Z"/>
            <path class="st4" d="M42.9,112.99c7.53-1.05,7.55,10.76,0,9.68-5.18-.74-5.21-8.95,0-9.68Z"/>
          </g>
        </g>
      </g>
    </g>
  </g>
</svg>